<svg width="30" height="31" viewBox="0 0 30 31" fill="none" xmlns="http://www.w3.org/2000/svg">
<path d="M15 30.2683C23.2842 30.2683 30 23.5329 30 15.2243C30 6.91569 23.2842 0.180237 15 0.180237C6.71572 0.180237 0 6.91569 0 15.2243C0 23.5329 6.71572 30.2683 15 30.2683Z" fill="#1977F3"/>
<path d="M20.8396 19.5741L21.5041 15.2244H17.3443V12.4022C17.3443 11.2132 17.9244 10.0517 19.7891 10.0517H21.6813V6.34943C21.6813 6.34943 19.9642 6.05536 18.3231 6.05536C14.8974 6.05536 12.6572 8.13711 12.6572 11.9092V15.2244H8.84766V19.5741H12.6572V30.0865C13.4208 30.2071 14.2034 30.2685 15.0008 30.2685C15.7981 30.2685 16.5807 30.205 17.3443 30.0865V19.5741H20.8396Z" fill="white"/>
</svg>
