<svg width="26" height="31" viewBox="0 0 26 31" fill="none" xmlns="http://www.w3.org/2000/svg">
<path d="M24.7399 23.628C24.2863 24.6792 23.7493 25.6467 23.1269 26.5365C22.2789 27.7492 21.5845 28.5886 21.0493 29.0549C20.2197 29.82 19.3308 30.2118 18.379 30.2342C17.6957 30.2342 16.8717 30.0393 15.9124 29.6436C14.9501 29.2498 14.0656 29.0549 13.257 29.0549C12.4089 29.0549 11.4993 29.2498 10.5263 29.6436C9.55191 30.0393 8.76693 30.2453 8.16676 30.2658C7.25402 30.3046 6.34424 29.9016 5.43611 29.0549C4.8565 28.5478 4.13154 27.6785 3.26303 26.4473C2.33121 25.1323 1.56514 23.6075 0.964967 21.8692C0.322212 19.9915 0 18.1733 0 16.413C0 14.3966 0.434434 12.6575 1.30459 11.2001C1.98846 10.0295 2.89824 9.10609 4.03691 8.42822C5.17558 7.75032 6.4059 7.40486 7.73086 7.38276C8.45584 7.38276 9.40653 7.60769 10.588 8.04971C11.7661 8.4932 12.5225 8.71812 12.8542 8.71812C13.1021 8.71812 13.9425 8.45513 15.3671 7.93084C16.7143 7.44462 17.8513 7.24329 18.7827 7.32259C21.3067 7.52689 23.203 8.52478 24.4639 10.3226C22.2067 11.6943 21.09 13.6156 21.1123 16.0804C21.1326 18.0002 21.8271 19.5978 23.1919 20.8663C23.8102 21.455 24.5011 21.91 25.2695 22.2332C25.103 22.7179 24.9269 23.1822 24.7399 23.628ZM18.9512 0.782169C18.9512 2.28692 18.4031 3.6919 17.3105 4.99234C15.9921 6.53828 14.3973 7.43162 12.6679 7.29066C12.6459 7.11014 12.6331 6.92014 12.6331 6.72048C12.6331 5.27593 13.2601 3.72996 14.3736 2.46594C14.9295 1.82593 15.6365 1.29378 16.4939 0.869273C17.3494 0.451098 18.1587 0.219839 18.9197 0.180237C18.942 0.381398 18.9512 0.582572 18.9512 0.782149V0.782169Z" fill="black"/>
</svg>
