<svg width="306" height="306" viewBox="0 0 306 306" fill="none" xmlns="http://www.w3.org/2000/svg">
<path d="M105.809 201.389C89.3925 201.373 72.9723 201.573 56.5615 201.268C44.9332 201.052 34.5934 196.933 26.268 188.654C22.6437 185.05 18.9787 181.231 16.4224 176.87C12.9614 170.966 10.6106 164.403 10.4269 157.378C10.2396 150.22 10.2922 143.135 12.7942 136.182C17.7078 122.528 26.8242 113.183 40.1054 107.511C45.8782 105.046 51.7779 104.034 57.956 104.038C70.0899 104.045 82.2258 103.912 94.3573 104.085C102.386 104.2 109.366 107.066 115.077 112.927C126.726 124.884 138.461 136.758 150.175 148.652C152.903 151.422 154.279 151.419 156.986 148.72C162.689 143.032 168.346 137.296 174.089 131.648C181.194 124.662 188.231 117.596 195.561 110.851C200.234 106.551 205.939 104.082 212.433 104.056C225.586 104.003 238.743 103.853 251.893 104.097C263.578 104.313 273.475 109.072 282.3 116.654C290.274 123.503 294.902 132.245 297.083 142.165C299.326 152.366 298.348 162.552 294.226 172.3C290.101 182.055 283.499 189.594 274.28 194.851C267.601 198.66 260.5 201.217 252.78 201.292C237.078 201.445 221.374 201.344 205.672 201.348C204.563 201.348 203.454 201.348 201.956 201.348C201.956 202.592 201.956 203.67 201.956 204.749C201.956 220.248 201.911 235.747 201.972 251.246C202.014 261.781 198.173 270.794 192.303 279.402C184.634 290.649 173.6 296.3 160.901 298.396C150.439 300.123 139.972 298.451 130.713 292.528C127.518 290.484 124.312 288.334 121.552 285.759C112.875 277.663 106.932 265.608 106.484 253.062C105.872 235.926 105.913 221.144 105.872 204.408C105.87 203.373 106.034 202.424 105.809 201.389Z" fill="#0583F2"/>
<path d="M194.293 31.6859C197.801 37.6612 199.38 44.1648 200.024 50.942C200.676 57.8072 199.752 64.2397 197.54 70.6482C196.092 74.845 193.187 80.9399 190.428 84.8458C185.878 91.2847 181.982 96.0459 177.19 101.329C171.769 107.307 167.332 113.005 159.812 119.481C156.107 123.069 150.714 122.781 147.271 119.147C137.167 109.752 127.586 99.7016 119.273 89.9907C112.445 82.014 107.902 73.1725 106.782 62.8975C105.392 50.1517 107.93 38.0533 116.038 27.2474C124.394 16.1099 135.427 10.0219 148.747 8.65166C161.21 7.36962 172.939 10.5933 182.904 18.7453C187.375 22.4029 191.38 26.0983 194.293 31.6859ZM138.53 35.3692C136.824 37.1 134.928 38.6828 133.444 40.5863C125.504 50.7697 126.527 64.6103 135.824 74.3227C145.123 84.0388 160.617 84.1271 170.132 75.228C176.224 69.5295 178.7 62.6436 178.441 54.3894C178.152 45.1562 172.395 37.1891 164.776 33.3161C155.818 28.7623 147.175 29.4658 138.53 35.3692Z" fill="#F89D1C"/>
</svg>
